<?xml version="1.0" encoding="utf-8"?>
<!-- Generator: Adobe Illustrator 17.0.0, SVG Export Plug-In . SVG Version: 6.00 Build 0)  -->
<!DOCTYPE svg PUBLIC "-//W3C//DTD SVG 1.1//EN" "http://www.w3.org/Graphics/SVG/1.1/DTD/svg11.dtd">
<svg version="1.1"
	 id="svg1288" xmlns:cc="http://creativecommons.org/ns#" xmlns:dc="http://purl.org/dc/elements/1.1/" xmlns:inkscape="http://www.inkscape.org/namespaces/inkscape" xmlns:rdf="http://www.w3.org/1999/02/22-rdf-syntax-ns#" xmlns:sodipodi="http://sodipodi.sourceforge.net/DTD/sodipodi-0.dtd" xmlns:svg="http://www.w3.org/2000/svg"
	 xmlns="http://www.w3.org/2000/svg" xmlns:xlink="http://www.w3.org/1999/xlink" x="0px" y="0px" width="48px" height="48px"
	 viewBox="0 0 48 48" enable-background="new 0 0 48 48" xml:space="preserve">
<g id="layer1">
	<g id="g6707" transform="matrix(1.177561e-2,0,0,1.190072e-2,47.31849,34.72232)">
		
			<linearGradient id="rect6709_1_" gradientUnits="userSpaceOnUse" x1="736078.8125" y1="-1331446" x2="736078.8125" y2="-1331688.75" gradientTransform="matrix(0.0327 0 0 -0.0234 -24937.1934 -31361.0117)">
			<stop  offset="0" style="stop-color:#000000;stop-opacity:0"/>
			<stop  offset="0.5" style="stop-color:#000000"/>
			<stop  offset="1" style="stop-color:#000000;stop-opacity:0"/>
		</linearGradient>
		
			<rect id="rect6709" x="-1559.203" y="-150.692" opacity="0.4021" fill="url(#rect6709_1_)" enable-background="new    " width="1339.589" height="478.346"/>
		
			<radialGradient id="path6711_1_" cx="756823.1875" cy="-1341529.125" r="117.1429" gradientTransform="matrix(0.0327 0 0 -0.0234 -24936.6465 -31361.0117)" gradientUnits="userSpaceOnUse">
			<stop  offset="0" style="stop-color:#000000"/>
			<stop  offset="1" style="stop-color:#000000;stop-opacity:0"/>
		</radialGradient>
		<path id="path6711" opacity="0.4021" fill="url(#path6711_1_)" enable-background="new    " d="M-219.613-150.677v478.32
			c142.869,0.9,345.389-107.167,345.389-239.191C125.776-43.571-33.656-150.677-219.613-150.677z"/>
		
			<radialGradient id="path6713_1_" cx="-708437.375" cy="-1341529.125" r="117.1429" gradientTransform="matrix(-0.0327 0 0 -0.0234 -24712.4102 -31361.0117)" gradientUnits="userSpaceOnUse">
			<stop  offset="0" style="stop-color:#000000"/>
			<stop  offset="1" style="stop-color:#000000;stop-opacity:0"/>
		</radialGradient>
		<path id="path6713" opacity="0.4021" fill="url(#path6713_1_)" enable-background="new    " d="M-1559.202-150.677v478.32
			c-142.869,0.9-345.389-107.167-345.389-239.191S-1745.159-150.677-1559.202-150.677z"/>
	</g>
	<g id="g17036" transform="matrix(1.177561e-2,0,0,1.190072e-2,41.31338,25.28572)">
		
			<linearGradient id="rect17038_1_" gradientUnits="userSpaceOnUse" x1="736588.75" y1="-1330653" x2="736588.75" y2="-1330895.875" gradientTransform="matrix(0.0327 0 0 -0.0234 -24953.8535 -31342.4258)">
			<stop  offset="0" style="stop-color:#000000;stop-opacity:0"/>
			<stop  offset="0.5" style="stop-color:#000000"/>
			<stop  offset="1" style="stop-color:#000000;stop-opacity:0"/>
		</linearGradient>
		
			<rect id="rect17038" x="-1559.202" y="-150.694" opacity="0.4021" fill="url(#rect17038_1_)" enable-background="new    " width="1339.589" height="478.346"/>
		
			<radialGradient id="path17040_1_" cx="757333.125" cy="-1340736.25" r="117.1429" gradientTransform="matrix(0.0327 0 0 -0.0234 -24953.3066 -31342.4258)" gradientUnits="userSpaceOnUse">
			<stop  offset="0" style="stop-color:#000000"/>
			<stop  offset="1" style="stop-color:#000000;stop-opacity:0"/>
		</radialGradient>
		<path id="path17040" opacity="0.4021" fill="url(#path17040_1_)" enable-background="new    " d="M-219.613-150.677v478.32
			c142.869,0.9,345.389-107.167,345.389-239.191C125.776-43.571-33.656-150.677-219.613-150.677z"/>
		
			<radialGradient id="path17042_1_" cx="-707927.375" cy="-1340736.25" r="117.1429" gradientTransform="matrix(-0.0327 0 0 -0.0234 -24695.75 -31342.4258)" gradientUnits="userSpaceOnUse">
			<stop  offset="0" style="stop-color:#000000"/>
			<stop  offset="1" style="stop-color:#000000;stop-opacity:0"/>
		</radialGradient>
		<path id="path17042" opacity="0.4021" fill="url(#path17042_1_)" enable-background="new    " d="M-1559.202-150.677v478.32
			c-142.869,0.9-345.389-107.167-345.389-239.191S-1745.159-150.677-1559.202-150.677z"/>
	</g>
	<g id="g6252" transform="matrix(-3.754588e-18,-0.246288,0.690294,-2.362713e-18,2.083163,42.95947)" opacity="0.6343">
		
			<linearGradient id="rect6254_1_" gradientUnits="userSpaceOnUse" x1="3390.9312" y1="-1196.3276" x2="3404.6318" y2="-1196.3276" gradientTransform="matrix(0 0.0899 1.8915 0 2298.7551 -272.1324)">
			<stop  offset="0" style="stop-color:#686868;stop-opacity:0"/>
			<stop  offset="0.2376" style="stop-color:#686868"/>
			<stop  offset="0.7811" style="stop-color:#686868"/>
			<stop  offset="1" style="stop-color:#686868;stop-opacity:0"/>
		</linearGradient>
		
			<rect id="rect6254" x="49.044" y="26.128" transform="matrix(-2.547107e-006 -1 1 -2.547107e-006 22.0022 87.2967)" fill="url(#rect6254_1_)" width="11.211" height="13.038"/>
		
			<linearGradient id="rect6256_1_" gradientUnits="userSpaceOnUse" x1="7377.0566" y1="-666.5258" x2="7381.5303" y2="-666.5258" gradientTransform="matrix(0 0.0545 5.6387 0 3794.7395 -367.7681)">
			<stop  offset="0" style="stop-color:#474747;stop-opacity:0"/>
			<stop  offset="0.1" style="stop-color:#474747"/>
			<stop  offset="0.9" style="stop-color:#474747"/>
			<stop  offset="1" style="stop-color:#474747;stop-opacity:0"/>
		</linearGradient>
		
			<rect id="rect6256" x="53.262" y="27.625" transform="matrix(-2.547107e-006 -1 1 -2.547107e-006 20.5054 88.7935)" fill="url(#rect6256_1_)" width="2.774" height="13.038"/>
		
			<linearGradient id="rect6258_1_" gradientUnits="userSpaceOnUse" x1="6990.2583" y1="-666.5258" x2="6994.7319" y2="-666.5258" gradientTransform="matrix(0 0.0563 5.6387 0 3794.7395 -362.7851)">
			<stop  offset="0" style="stop-color:#474747;stop-opacity:0"/>
			<stop  offset="0.1" style="stop-color:#474747"/>
			<stop  offset="0.9" style="stop-color:#474747"/>
			<stop  offset="1" style="stop-color:#474747;stop-opacity:0"/>
		</linearGradient>
		
			<rect id="rect6258" x="53.216" y="24.294" transform="matrix(-2.547107e-006 -1 1 -2.547107e-006 23.8367 85.4621)" fill="url(#rect6258_1_)" width="2.867" height="13.038"/>
		
			<linearGradient id="rect6260_1_" gradientUnits="userSpaceOnUse" x1="10073.9023" y1="-1196.3276" x2="10087.6025" y2="-1196.3276" gradientTransform="matrix(0 0.0364 1.8915 0 2298.7551 -334.1841)">
			<stop  offset="0" style="stop-color:#FFFFFF;stop-opacity:0"/>
			<stop  offset="0.1083" style="stop-color:#FFFFFF;stop-opacity:0.7066"/>
			<stop  offset="0.9205" style="stop-color:#FFFFFF;stop-opacity:0.7066"/>
			<stop  offset="1" style="stop-color:#FFFFFF;stop-opacity:0"/>
		</linearGradient>
		
			<rect id="rect6260" x="52.381" y="25.715" transform="matrix(-2.547107e-006 -1 1 -2.547107e-006 22.4151 86.8838)" fill="url(#rect6260_1_)" width="4.537" height="13.038"/>
	</g>
	<g id="g4338">
		<path id="rect4248" fill="#D4D4D4" stroke="#5E5E5E" stroke-width="1.0253" d="M22.758,22.5h15.484
			c0.695,0,1.258,0.563,1.258,1.258v1.484c0,0.695-0.563,1.258-1.258,1.258H22.758c-0.695,0-1.258-0.563-1.258-1.258v-1.484
			C21.5,23.063,22.063,22.5,22.758,22.5z"/>
		<path id="rect4250" fill="#D4D4D4" stroke="#5E5E5E" stroke-width="1.0192" d="M24.071,5.5h12.857c1.42,0,2.571,1.151,2.571,2.571
			v11.741c0,1.42-1.151,2.571-2.571,2.571H24.071c-1.42,0-2.571-1.151-2.571-2.571V8.071C21.5,6.651,22.651,5.5,24.071,5.5z"/>
		<path id="rect4252" opacity="0.6629" fill="#FFFFFF" stroke="#FFFFFF" stroke-width="0.9958" enable-background="new    " d="
			M24.571,8.065h12.857C37.744,8.065,38,8.321,38,8.636v9.857c0,0.316-0.256,0.571-0.571,0.571H24.571
			c-0.316,0-0.571-0.256-0.571-0.571V8.636C24,8.321,24.256,8.065,24.571,8.065z"/>
		<path id="rect4254" fill="#204A87" stroke="#5E5E5E" stroke-width="0.9958" d="M24.071,7.5h12.857
			c0.316,0,0.571,0.256,0.571,0.571v9.857c0,0.316-0.256,0.571-0.571,0.571H24.071c-0.316,0-0.571-0.256-0.571-0.571V8.071
			C23.5,7.756,23.756,7.5,24.071,7.5z"/>
		<rect id="rect4256" x="23.982" y="7.989" fill="#FFFFFF" width="12.966" height="1.525"/>
		<rect id="rect4258" x="25.007" y="8.191" fill="#A4A0B5" width="2.906" height="1.13"/>
		
			<linearGradient id="rect4264_1_" gradientUnits="userSpaceOnUse" x1="44.2475" y1="59.6377" x2="55.8726" y2="38.7275" gradientTransform="matrix(0.9692 0 0 -0.9932 -16.7336 65.1607)">
			<stop  offset="0" style="stop-color:#FFFFFF"/>
			<stop  offset="1" style="stop-color:#FFFFFF;stop-opacity:0"/>
		</linearGradient>
		
			<path id="rect4264" opacity="0.6286" fill="none" stroke="url(#rect4264_1_)" stroke-width="1.0192" enable-background="new    " d="
			M24.07,6.54H36.93c0.806,0,1.46,0.654,1.46,1.46v11.882c0,0.806-0.654,1.46-1.46,1.46H24.07c-0.806,0-1.46-0.654-1.46-1.46V8.001
			C22.61,7.194,23.263,6.54,24.07,6.54z"/>
		<path id="rect4266" opacity="0.5143" fill="none" stroke="#FDFDFD" stroke-width="1.0253" enable-background="new    " d="
			M22.787,23.455h15.425c0.249,0,0.45,0.202,0.45,0.45v1.189c0,0.249-0.202,0.45-0.45,0.45H22.787c-0.249,0-0.45-0.202-0.45-0.45
			v-1.189C22.337,23.657,22.539,23.455,22.787,23.455z"/>
		
			<linearGradient id="rect4268_1_" gradientUnits="userSpaceOnUse" x1="49.8913" y1="36.4563" x2="55.8512" y2="36.4563" gradientTransform="matrix(0.9692 0 0 -0.9814 -16.7336 60.2987)">
			<stop  offset="0" style="stop-color:#5E5E5E"/>
			<stop  offset="1" style="stop-color:#5E5E5E;stop-opacity:0"/>
		</linearGradient>
		
			<rect id="rect4268" x="31.623" y="23.974" opacity="0.32" fill="url(#rect4268_1_)" enable-background="new    " width="5.777" height="1.091"/>
		
			<linearGradient id="path4270_1_" gradientUnits="userSpaceOnUse" x1="47.6682" y1="58.6071" x2="49.8792" y2="51.233" gradientTransform="matrix(0.9908 0 0 -1.0148 -17.5058 68.2204)">
			<stop  offset="0" style="stop-color:#FFFFFF"/>
			<stop  offset="1" style="stop-color:#FFFFFF;stop-opacity:0"/>
		</linearGradient>
		<path id="path4270" opacity="0.3257" fill="url(#path4270_1_)" enable-background="new    " d="M24,8v6.794
			C24.653,14.847,25.234,15,25.914,15c4.669,0,8.599-1.382,11.086-3.363V8H24z"/>
	</g>
	<g id="g5391" transform="matrix(0.507951,0,0,0.674592,-6.478237,12.6272)" opacity="0.6343">
		
			<linearGradient id="rect69_1_" gradientUnits="userSpaceOnUse" x1="-123.7815" y1="-1777.0867" x2="-110.0807" y2="-1777.0867" gradientTransform="matrix(1.3919 0 0 -0.2462 208.1657 -404.8483)">
			<stop  offset="0" style="stop-color:#686868;stop-opacity:0"/>
			<stop  offset="0.2376" style="stop-color:#686868"/>
			<stop  offset="0.7811" style="stop-color:#686868"/>
			<stop  offset="1" style="stop-color:#686868;stop-opacity:0"/>
		</linearGradient>
		<rect id="rect69" x="36.378" y="30.647" fill="url(#rect69_1_)" width="36.543" height="4"/>
		
			<linearGradient id="rect255_1_" gradientUnits="userSpaceOnUse" x1="-390.7449" y1="-3611.8765" x2="-386.2714" y2="-3611.8765" gradientTransform="matrix(4.1492 0 0 -0.1492 1657.6753 -504.8436)">
			<stop  offset="0" style="stop-color:#474747;stop-opacity:0"/>
			<stop  offset="0.1" style="stop-color:#474747"/>
			<stop  offset="0.9" style="stop-color:#474747"/>
			<stop  offset="1" style="stop-color:#474747;stop-opacity:0"/>
		</linearGradient>
		<rect id="rect255" x="36.378" y="33.649" fill="url(#rect255_1_)" width="36.543" height="0.99"/>
		
			<linearGradient id="rect250_1_" gradientUnits="userSpaceOnUse" x1="-390.7449" y1="-3439.4255" x2="-386.2714" y2="-3439.4255" gradientTransform="matrix(4.1492 0 0 -0.1542 1657.6753 -499.6358)">
			<stop  offset="0" style="stop-color:#474747;stop-opacity:0"/>
			<stop  offset="0.1" style="stop-color:#474747"/>
			<stop  offset="0.9" style="stop-color:#474747"/>
			<stop  offset="1" style="stop-color:#474747;stop-opacity:0"/>
		</linearGradient>
		<rect id="rect250" x="36.378" y="30.301" fill="url(#rect250_1_)" width="36.543" height="1.023"/>
		
			<linearGradient id="rect176_1_" gradientUnits="userSpaceOnUse" x1="-123.7815" y1="-5076.1699" x2="-110.0807" y2="-5076.1699" gradientTransform="matrix(1.3919 0 0 -0.0996 208.1657 -473.4898)">
			<stop  offset="0" style="stop-color:#FFFFFF;stop-opacity:0"/>
			<stop  offset="0.1083" style="stop-color:#FFFFFF;stop-opacity:0.7066"/>
			<stop  offset="0.9205" style="stop-color:#FFFFFF;stop-opacity:0.7066"/>
			<stop  offset="1" style="stop-color:#FFFFFF;stop-opacity:0"/>
		</linearGradient>
		<rect id="rect176" x="36.378" y="31.425" fill="url(#rect176_1_)" width="36.543" height="1.619"/>
	</g>
	<path id="path5405" fill="#EAEAEA" stroke="#8A8A8A" stroke-width="1.0859" d="M26.5,34.5c0,1.105-0.895,2-2,2s-2-0.895-2-2
		c0-1.105,0.895-2,2-2S26.5,33.395,26.5,34.5z"/>
	<g id="g17050" transform="matrix(9.661796e-3,0,0,1.408546e-2,17.81957,36.70842)">
		
			<linearGradient id="rect17052_1_" gradientUnits="userSpaceOnUse" x1="1095537.5" y1="-950166.5625" x2="1095537.5" y2="-950409.375" gradientTransform="matrix(0.0268 0 0 -0.0277 -30255.9355 -26512.3281)">
			<stop  offset="0" style="stop-color:#000000;stop-opacity:0"/>
			<stop  offset="0.5" style="stop-color:#000000"/>
			<stop  offset="1" style="stop-color:#000000;stop-opacity:0"/>
		</linearGradient>
		
			<rect id="rect17052" x="-1559.221" y="-150.703" opacity="0.4021" fill="url(#rect17052_1_)" enable-background="new    " width="1339.605" height="478.373"/>
		
			<radialGradient id="path17054_1_" cx="1120820.625" cy="-958686.25" r="117.1429" gradientTransform="matrix(0.0268 0 0 -0.0277 -30255.3906 -26512.3281)" gradientUnits="userSpaceOnUse">
			<stop  offset="0" style="stop-color:#000000"/>
			<stop  offset="1" style="stop-color:#000000;stop-opacity:0"/>
		</radialGradient>
		<path id="path17054" opacity="0.4021" fill="url(#path17054_1_)" enable-background="new    " d="M-219.616-150.685v478.346
			c142.871,0.9,345.393-107.173,345.393-239.204C125.777-43.574-33.656-150.685-219.616-150.685z"/>
		
			<radialGradient id="path17056_1_" cx="-1055742" cy="-958686.25" r="117.1429" gradientTransform="matrix(-0.0268 0 0 -0.0277 -29867.4707 -26512.3281)" gradientUnits="userSpaceOnUse">
			<stop  offset="0" style="stop-color:#000000"/>
			<stop  offset="1" style="stop-color:#000000;stop-opacity:0"/>
		</radialGradient>
		<path id="path17056" opacity="0.4021" fill="url(#path17056_1_)" enable-background="new    " d="M-1559.221-150.685v478.346
			c-142.871,0.9-345.393-107.173-345.393-239.204S-1745.18-150.685-1559.221-150.685z"/>
	</g>
	
		<linearGradient id="path3626_1_" gradientUnits="userSpaceOnUse" x1="163.0982" y1="-113.9136" x2="161.9819" y2="-89.4679" gradientTransform="matrix(0.683 0 0 -0.7109 -102.0761 -47.2028)">
		<stop  offset="0" style="stop-color:#D2D2D2"/>
		<stop  offset="1" style="stop-color:#DFDFDF"/>
	</linearGradient>
	
		<path id="path3626" fill="url(#path3626_1_)" stroke="#5E5E5E" stroke-width="1.0105" stroke-linecap="round" stroke-linejoin="round" d="
		M1.5,14.66V38.5h15V14.516L13.74,11.5H4.122L1.5,14.66z"/>
	<path id="path5791" fill="#FFFFFF" fill-opacity="0.6554" d="M4.311,12.105L2.02,15.483h13.553l-2.481-3.278L4.311,12.105z"/>
	
		<rect id="rect4553" x="4.326" y="17.175" opacity="0.3486" fill="#FFFFFF" stroke="#FFFFFF" stroke-width="1.0105" enable-background="new    " width="10.423" height="2.95"/>
	<path id="path4394" fill="none" stroke="#FFFFFF" stroke-width="1.018" d="M2.5,15.318V37.5h13V15.19l-2.407-2.69H4.787L2.5,15.318
		z"/>
	
		<linearGradient id="rect4408_1_" gradientUnits="userSpaceOnUse" x1="212.8477" y1="-207.5175" x2="207.8347" y2="-207.4165" gradientTransform="matrix(0.6141 0 0 -0.595 -119.6923 -94.4768)">
		<stop  offset="0" style="stop-color:#FFFFFF"/>
		<stop  offset="1" style="stop-color:#FFFFFF;stop-opacity:0"/>
	</linearGradient>
	
		<linearGradient id="rect4408_2_" gradientUnits="userSpaceOnUse" x1="212.8477" y1="-207.5175" x2="207.8347" y2="-207.4165" gradientTransform="matrix(0.6141 0 0 -0.595 -119.6923 -94.4768)">
		<stop  offset="0" style="stop-color:#FFFFFF"/>
		<stop  offset="1" style="stop-color:#FFFFFF;stop-opacity:0"/>
	</linearGradient>
	
		<rect id="rect4408" x="7.5" y="27.5" opacity="0.5257" fill="url(#rect4408_1_)" stroke="url(#rect4408_2_)" stroke-width="1.1141" enable-background="new    " width="7" height="3"/>
	<rect id="rect4398" x="7.212" y="26.5" fill="#C8C8C8" stroke="#ACACAC" stroke-width="1.0007" width="7" height="3"/>
	
		<rect id="rect4551" x="4.326" y="21.347" opacity="0.3486" fill="#FFFFFF" stroke="#FFFFFF" stroke-width="1.0105" enable-background="new    " width="10.423" height="2.95"/>
	<rect id="rect4430" x="3.5" y="21.5" fill="#C8C8C8" stroke="#ACACAC" stroke-width="0.9814" width="11" height="3"/>
	<rect id="rect4436" x="3.5" y="16.5" fill="#C8C8C8" stroke="#ACACAC" stroke-width="0.9814" width="11" height="3"/>
	<g id="g4157">
		<path id="path4396" fill="#C8C8C8" stroke="#979797" stroke-width="2.1718" d="M5.5,28.5c0,0.552-0.448,1-1,1s-1-0.448-1-1
			c0-0.552,0.448-1,1-1S5.5,27.948,5.5,28.5z"/>
		<path id="path4445" fill="#FFFFFF" d="M4.47,28.289c0,0.166-0.135,0.301-0.301,0.301c-0.166,0-0.301-0.135-0.301-0.301
			s0.135-0.301,0.301-0.301C4.335,27.989,4.47,28.123,4.47,28.289z"/>
	</g>
	
		<linearGradient id="rect4457_1_" gradientUnits="userSpaceOnUse" x1="28.0909" y1="-132.8848" x2="28.0909" y2="-123.8944" gradientTransform="matrix(0.99 0 0 -0.693 -21.3086 -55.0845)">
		<stop  offset="0" style="stop-color:#FFFFFF"/>
		<stop  offset="1" style="stop-color:#FFFFFF;stop-opacity:0"/>
	</linearGradient>
	<rect id="rect4457" x="6" y="30" opacity="0.2" fill="url(#rect4457_1_)" enable-background="new    " width="1" height="7"/>
	
		<linearGradient id="rect4481_1_" gradientUnits="userSpaceOnUse" x1="28.0909" y1="-132.8848" x2="28.0909" y2="-123.8944" gradientTransform="matrix(0.99 0 0 -0.693 -22.3086 -55.0845)">
		<stop  offset="0" style="stop-color:#000000"/>
		<stop  offset="1" style="stop-color:#000000;stop-opacity:0"/>
	</linearGradient>
	<rect id="rect4481" x="5" y="30" opacity="0.2" fill="url(#rect4481_1_)" enable-background="new    " width="1" height="7"/>
	
		<linearGradient id="rect4483_1_" gradientUnits="userSpaceOnUse" x1="28.0909" y1="-132.8848" x2="28.0909" y2="-123.8944" gradientTransform="matrix(0.99 0 0 -0.693 -20.3086 -55.0845)">
		<stop  offset="0" style="stop-color:#000000"/>
		<stop  offset="1" style="stop-color:#000000;stop-opacity:0"/>
	</linearGradient>
	<rect id="rect4483" x="7" y="30" opacity="0.2" fill="url(#rect4483_1_)" enable-background="new    " width="1" height="7"/>
	<g id="g4230">
		<path id="rect6216" fill="#D4D4D4" stroke="#5E5E5E" stroke-width="1.0253" d="M29.758,32.5h15.484
			c0.695,0,1.258,0.563,1.258,1.258v1.484c0,0.695-0.563,1.258-1.258,1.258H29.758c-0.695,0-1.258-0.563-1.258-1.258v-1.484
			C28.5,33.063,29.063,32.5,29.758,32.5z"/>
		<path id="rect6218" fill="#D4D4D4" stroke="#5E5E5E" stroke-width="1.0192" d="M31.071,15.5h12.857
			c1.42,0,2.571,1.151,2.571,2.571v11.741c0,1.42-1.151,2.571-2.571,2.571H31.071c-1.42,0-2.571-1.151-2.571-2.571V18.071
			C28.5,16.651,29.651,15.5,31.071,15.5z"/>
		<path id="rect6220" opacity="0.6629" fill="#FFFFFF" stroke="#FFFFFF" stroke-width="0.9958" enable-background="new    " d="
			M31.571,18.065h12.857c0.316,0,0.571,0.256,0.571,0.571v9.857c0,0.316-0.256,0.571-0.571,0.571H31.571
			c-0.316,0-0.571-0.256-0.571-0.571v-9.857C31,18.321,31.256,18.065,31.571,18.065z"/>
		<path id="rect6222" fill="#204A87" stroke="#5E5E5E" stroke-width="0.9958" d="M31.071,17.5h12.857
			c0.316,0,0.571,0.256,0.571,0.571v9.857c0,0.316-0.256,0.571-0.571,0.571H31.071c-0.316,0-0.571-0.256-0.571-0.571v-9.857
			C30.5,17.756,30.756,17.5,31.071,17.5z"/>
		<rect id="rect6224" x="30.982" y="17.989" fill="#FFFFFF" width="12.966" height="1.525"/>
		<rect id="rect6226" x="32.007" y="18.191" fill="#A4A0B5" width="2.906" height="1.13"/>
		<rect id="rect6228" x="31.884" y="19.529" fill="#FFFFFF" width="4.95" height="5.633"/>
		<rect id="rect6230" x="31.947" y="20.553" fill="#A4A0B5" width="4.91" height="1.13"/>
		
			<linearGradient id="rect6232_1_" gradientUnits="userSpaceOnUse" x1="44.2475" y1="59.6377" x2="55.8726" y2="38.7275" gradientTransform="matrix(0.9692 0 0 -0.9932 -9.7336 75.1607)">
			<stop  offset="0" style="stop-color:#FFFFFF"/>
			<stop  offset="1" style="stop-color:#FFFFFF;stop-opacity:0"/>
		</linearGradient>
		
			<path id="rect6232" opacity="0.6286" fill="none" stroke="url(#rect6232_1_)" stroke-width="1.0192" enable-background="new    " d="
			M31.07,16.54H43.93c0.806,0,1.46,0.654,1.46,1.46v11.882c0,0.806-0.654,1.46-1.46,1.46H31.07c-0.806,0-1.46-0.654-1.46-1.46
			V18.001C29.61,17.194,30.263,16.54,31.07,16.54z"/>
		<path id="rect6234" opacity="0.5143" fill="none" stroke="#FDFDFD" stroke-width="1.0253" enable-background="new    " d="
			M29.787,33.455h15.425c0.249,0,0.45,0.202,0.45,0.45v1.189c0,0.249-0.202,0.45-0.45,0.45H29.787c-0.249,0-0.45-0.202-0.45-0.45
			v-1.189C29.337,33.657,29.539,33.455,29.787,33.455z"/>
		
			<linearGradient id="rect6236_1_" gradientUnits="userSpaceOnUse" x1="49.8913" y1="36.4563" x2="55.8512" y2="36.4563" gradientTransform="matrix(0.9692 0 0 -0.9814 -9.7336 70.2987)">
			<stop  offset="0" style="stop-color:#5E5E5E"/>
			<stop  offset="1" style="stop-color:#5E5E5E;stop-opacity:0"/>
		</linearGradient>
		
			<rect id="rect6236" x="38.623" y="33.974" opacity="0.32" fill="url(#rect6236_1_)" enable-background="new    " width="5.777" height="1.091"/>
		
			<linearGradient id="rect6452_1_" gradientUnits="userSpaceOnUse" x1="47.6682" y1="58.6071" x2="49.8792" y2="51.233" gradientTransform="matrix(0.9908 0 0 -1.0148 -10.5058 78.2205)">
			<stop  offset="0" style="stop-color:#FFFFFF"/>
			<stop  offset="1" style="stop-color:#FFFFFF;stop-opacity:0"/>
		</linearGradient>
		<path id="rect6452" opacity="0.3257" fill="url(#rect6452_1_)" enable-background="new    " d="M31,18v6.794
			C31.653,24.847,32.234,25,32.914,25c4.669,0,8.599-1.382,11.086-3.363V18H31z"/>
	</g>
	
		<linearGradient id="rect4357_1_" gradientUnits="userSpaceOnUse" x1="28.0909" y1="-132.8848" x2="28.0909" y2="-123.8944" gradientTransform="matrix(0.99 0 0 -0.693 -19.3086 -55.0845)">
		<stop  offset="0" style="stop-color:#FFFFFF"/>
		<stop  offset="1" style="stop-color:#FFFFFF;stop-opacity:0"/>
	</linearGradient>
	<rect id="rect4357" x="8" y="30" opacity="0.2" fill="url(#rect4357_1_)" enable-background="new    " width="1" height="7"/>
	
		<linearGradient id="rect4361_1_" gradientUnits="userSpaceOnUse" x1="28.0909" y1="-132.8848" x2="28.0909" y2="-123.8944" gradientTransform="matrix(0.99 0 0 -0.693 -17.3086 -55.0845)">
		<stop  offset="0" style="stop-color:#FFFFFF"/>
		<stop  offset="1" style="stop-color:#FFFFFF;stop-opacity:0"/>
	</linearGradient>
	<rect id="rect4361" x="10" y="30" opacity="0.2" fill="url(#rect4361_1_)" enable-background="new    " width="1" height="7"/>
	
		<linearGradient id="rect4365_1_" gradientUnits="userSpaceOnUse" x1="28.0909" y1="-132.8848" x2="28.0909" y2="-123.8944" gradientTransform="matrix(0.99 0 0 -0.693 -15.3086 -55.0845)">
		<stop  offset="0" style="stop-color:#FFFFFF"/>
		<stop  offset="1" style="stop-color:#FFFFFF;stop-opacity:0"/>
	</linearGradient>
	<rect id="rect4365" x="12" y="30" opacity="0.2" fill="url(#rect4365_1_)" enable-background="new    " width="1" height="7"/>
	
		<linearGradient id="rect4369_1_" gradientUnits="userSpaceOnUse" x1="28.0909" y1="-132.8848" x2="28.0909" y2="-123.8944" gradientTransform="matrix(0.99 0 0 -0.693 -18.3086 -55.0845)">
		<stop  offset="0" style="stop-color:#000000"/>
		<stop  offset="1" style="stop-color:#000000;stop-opacity:0"/>
	</linearGradient>
	<rect id="rect4369" x="9" y="30" opacity="0.2" fill="url(#rect4369_1_)" enable-background="new    " width="1" height="7"/>
	
		<linearGradient id="rect4373_1_" gradientUnits="userSpaceOnUse" x1="28.0909" y1="-132.8848" x2="28.0909" y2="-123.8944" gradientTransform="matrix(0.99 0 0 -0.693 -16.3086 -55.0845)">
		<stop  offset="0" style="stop-color:#000000"/>
		<stop  offset="1" style="stop-color:#000000;stop-opacity:0"/>
	</linearGradient>
	<rect id="rect4373" x="11" y="30" opacity="0.2" fill="url(#rect4373_1_)" enable-background="new    " width="1" height="7"/>
	
		<linearGradient id="rect4381_1_" gradientUnits="userSpaceOnUse" x1="28.0909" y1="-132.8848" x2="28.0909" y2="-123.8944" gradientTransform="matrix(0.99 0 0 -0.693 -14.3086 -55.0845)">
		<stop  offset="0" style="stop-color:#000000"/>
		<stop  offset="1" style="stop-color:#000000;stop-opacity:0"/>
	</linearGradient>
	<rect id="rect4381" x="13" y="30" opacity="0.2" fill="url(#rect4381_1_)" enable-background="new    " width="1" height="7"/>
</g>
</svg>
